{"asset":{"version":"2.0","extras":{"Commision":"","Item Number":"","Customer":"","Client":"","Series":"","Name of Processor":"","Order Date":"","Last Revision":"","Delivery Date":"","Shipping Date":"","Construction Rules":"STANDARD","Design Parameters":"STANDARD","Description":"","Short text":"","Info 1":"","Info 2":"","Info 3":"","Info 4":"","Info 5":"","Info 6":"","Info 7":"","Info 8":"","Info 9":"","Info 10":"","Info 11":"","Info 12":"","Info 13":"","Info 14":"","Info 15":""}},"accessors":[{"bufferView":0,"componentType":5123,"count":6,"type":"SCALAR"},{"bufferView":1,"componentType":5126,"count":4,"type":"VEC3","max":[2.1531999111175539,0.5932000279426575,0.0],"min":[0.0007999999797903001,0.0007999999797903001,0.0]},{"bufferView":2,"componentType":5126,"count":4,"type":"VEC3"},{"bufferView":3,"componentType":5123,"count":6,"type":"SCALAR"},{"bufferView":4,"componentType":5126,"count":4,"type":"VEC3","max":[2.1531999111175539,0.5932000279426575,0.017999999225139619],"min":[0.0007999999797903001,0.0007999999797903001,0.017999999225139619]},{"bufferView":5,"componentType":5126,"count":4,"type":"VEC3"},{"bufferView":6,"componentType":5123,"count":42,"type":"SCALAR"},{"bufferView":7,"componentType":5126,"count":14,"type":"VEC3","max":[2.1540000438690187,0.0007999999797903001,0.017999999225139619],"min":[0.0,0.0,0.0]},{"bufferView":8,"componentType":5123,"count":18,"type":"SCALAR"},{"bufferView":9,"componentType":5126,"count":8,"type":"VEC3","max":[2.1540000438690187,0.5932000279426575,0.017999999225139619],"min":[2.1531999111175539,0.0007999999797903001,0.0]},{"bufferView":10,"componentType":5123,"count":42,"type":"SCALAR"},{"bufferView":11,"componentType":5126,"count":14,"type":"VEC3","max":[2.1540000438690187,0.593999981880188,0.017999999225139619],"min":[0.0,0.5932000279426575,0.0]},{"bufferView":12,"componentType":5123,"count":18,"type":"SCALAR"},{"bufferView":13,"componentType":5126,"count":8,"type":"VEC3","max":[0.0007999999797903001,0.5932000279426575,0.017999999225139619],"min":[0.0,0.0007999999797903001,0.0]}],"bufferViews":[{"buffer":0,"byteOffset":0,"byteLength":12,"target":34963},{"buffer":0,"byteOffset":12,"byteLength":48,"target":34962},{"buffer":0,"byteOffset":60,"byteLength":48,"target":34962},{"buffer":0,"byteOffset":108,"byteLength":12,"target":34963},{"buffer":0,"byteOffset":120,"byteLength":48,"target":34962},{"buffer":0,"byteOffset":168,"byteLength":48,"target":34962},{"buffer":0,"byteOffset":216,"byteLength":84,"target":34963},{"buffer":0,"byteOffset":300,"byteLength":168,"target":34962},{"buffer":0,"byteOffset":468,"byteLength":36,"target":34963},{"buffer":0,"byteOffset":504,"byteLength":96,"target":34962},{"buffer":0,"byteOffset":600,"byteLength":84,"target":34963},{"buffer":0,"byteOffset":684,"byteLength":168,"target":34962},{"buffer":0,"byteOffset":852,"byteLength":36,"target":34963},{"buffer":0,"byteOffset":888,"byteLength":96,"target":34962}],"buffers":[{"byteLength":984,"uri":"Door60Slab_0.bin"}],"materials":[{"pbrMetallicRoughness":{"baseColorFactor":[0.6038272976875305,0.6038272976875305,0.6038272976875305,0.0],"metallicFactor":0.5,"roughnessFactor":0.800000011920929},"doubleSided":true},{"pbrMetallicRoughness":{"baseColorFactor":[0.6038272976875305,0.6038272976875305,0.6038272976875305,0.0],"metallicFactor":0.5,"roughnessFactor":0.800000011920929},"doubleSided":true}],"meshes":[{"primitives":[{"attributes":{"NORMAL":2,"POSITION":1},"indices":0,"material":0}]},{"primitives":[{"attributes":{"POSITION":4,"NORMAL":5},"indices":3,"material":0}]},{"primitives":[{"attributes":{"POSITION":7},"indices":6,"material":1}]},{"primitives":[{"attributes":{"POSITION":9},"indices":8,"material":1}]},{"primitives":[{"attributes":{"POSITION":11},"indices":10,"material":1}]},{"primitives":[{"attributes":{"POSITION":13},"indices":12,"material":1}]}],"nodes":[{"mesh":0,"name":"Surface0","extras":{"colorprinciple":"EG_U201_ST9","imosfacetype":"Surface","imosnr":0}},{"mesh":1,"name":"Surface1","extras":{"colorprinciple":"EG_U201_ST9","imosfacetype":"Surface","imosnr":1}},{"mesh":2,"name":"Edge1","extras":{"colorprinciple":"EG_U113_ST9","imosfacetype":"Edge","imosnr":1}},{"mesh":3,"name":"Edge2","extras":{"colorprinciple":"EG_U113_ST9","imosfacetype":"Edge","imosnr":2}},{"mesh":4,"name":"Edge3","extras":{"colorprinciple":"EG_U113_ST9","imosfacetype":"Edge","imosnr":3}},{"mesh":5,"name":"Edge4","extras":{"colorprinciple":"EG_U113_ST9","imosfacetype":"Edge","imosnr":4}},{"children":[0,1,2,3,4,5],"matrix":[0.0,0.0,1.0,0.0,-1.0,0.0,0.0,0.0,0.0,-1.0,0.0,0.0,0.597000002861023,-0.6499999761581421,0.003000000026077032,1.0],"name":"part","extras":{"imos":{"id":16386,"parttype":"door"},"visualization":{"isFront":"true"}}},{"children":[6],"matrix":[1.0,0.0,0.0,0.0,0.0,0.0,-1.0,0.0,0.0,1.0,0.0,0.0,0.0,0.0,0.0,1.0],"name":"Article","extras":{"imos":{"id":49153,"parttype":""},"ArticleFullName":"Pos. 001 OPDH600 Article Designer Group","Length":600.0,"Width":650.0,"Height":2160.0,"VersoString":"","Name":"OPDH600","Categorie":"","Descript_1":"Open Double Hanging 600mm","Descript_2":"","CalcPrincipleName":"","Info  1":"","Info  2":"","Info  3":"","Info  4":"","Info  5":"","Info  6":"","Info  7":"","Info  8":"","Info  9":"","Info 10":"","Info 11":"","Info 12":"","Info 13":"","Info 14":"","Info 15":"","Info 16":"","Info 17":"","Info 18":"","Info 19":"","Pos. Number":"001","Hierarchy":"001","Article Category":"","Merchandise group":"","Comment 1":"","Comment 2":""}}],"scenes":[{"nodes":[7]}],"scene":0}